# xmcd
#
# Track frame offsets:
#	187
#	31000
#	52762
#	80625
#	111912
#	134837
#	158587
#	181500
#
# Disc length: 2833 seconds
#
# Revision: 3
# Processed by: cddbd v1.4PL0 Copyright (c) Steve Scherf et al.
# Submitted via: audiograbber 1.82.01
#
DISCID=590b0f08
DTITLE=Steve Brown, Gerry Niewood - Child's Play
DYEAR=1987
DGENRE=Jazz - Bop
TTITLE0=Child's Play
TTITLE1=Hop, Skip, and a Jump
TTITLE2=Stompin' at the Savoy
TTITLE3=Hold Me
TTITLE4=Wes' Tune
TTITLE5=Bossa Barbara
TTITLE6=Major Brown's Minor Blues
TTITLE7=Indian Summer
EXTD=
EXTT0=
EXTT1=
EXTT2=
EXTT3=
EXTT4=
EXTT5=
EXTT6=
EXTT7=
PLAYORDER=
